<?xml version="1.0" encoding="iso-8859-1"?>
<!-- Uploaded to: SVG Repo, www.svgrepo.com, Generator: SVG Repo Mixer Tools -->
<svg height="800px" width="800px" version="1.1" id="Layer_1" xmlns="http://www.w3.org/2000/svg" xmlns:xlink="http://www.w3.org/1999/xlink" 
	 viewBox="0 0 512.001 512.001" xml:space="preserve">
<g>
	<path style="fill:#6C686F;" d="M238.137,395.984c-6.796-5.314-11.165-13.587-11.165-22.881c0-6.422,2.132-12.663,6.056-17.743
		c-11.559-2.639-23.094-7.269-34.558-13.89c-21.678-14.703-33.627-19.255-42.103-34.837
		C85.696,342.87,37.334,416.452,37.334,501.329H217.2L238.137,395.984z"/>
	<g>
		<path style="fill:#2C5A7E;" d="M238.137,395.984L217.2,501.329l77.601-0.002l-20.933-105.345
			c-4.926,3.851-11.13,6.148-17.867,6.148C249.265,402.13,243.062,399.834,238.137,395.984z"/>
		<path style="fill:#2C5A7E;" d="M238.137,395.984c4.924,3.849,11.128,6.146,17.863,6.146c6.737,0,12.941-2.296,17.867-6.148
			c6.792-5.312,11.161-13.585,11.161-22.879c0-6.422-2.132-12.663-6.058-17.745c-15.305,3.494-30.648,3.492-45.942,0.002
			c-3.924,5.08-6.056,11.322-6.056,17.743C226.973,382.397,231.341,390.67,238.137,395.984z"/>
	</g>
	<path style="fill:#6C686F;" d="M273.868,395.982l20.933,105.346l179.866,0.002c0-84.879-48.362-158.459-119.034-194.696
		c-8.474,15.582-20.423,20.131-42.101,34.833c-11.474,6.623-23.005,11.252-34.56,13.891c3.926,5.083,6.058,11.324,6.058,17.745
		C285.029,382.397,280.66,390.67,273.868,395.982z"/>
	<path style="fill:#F3DDB9;" d="M233.029,355.359c15.295,3.49,30.638,3.492,45.942-0.002c11.554-2.639,23.086-7.269,34.56-13.891
		c21.678-14.703,33.627-19.251,42.114-34.826c5.82-10.674,10.011-26.528,14.597-54.379c2.019-12.26,7.875-41.183,10.321-64.488
		c-74.651,38.54-174.473,38.54-249.123,0.002c2.322,24.05,8.233,51.818,10.317,64.486c4.589,27.851,8.78,43.705,14.599,54.379
		c8.489,15.575,20.437,20.128,42.116,34.831C209.935,348.092,221.469,352.72,233.029,355.359z"/>
	<path style="fill:#6C686F;" d="M131.439,187.774c74.651,38.538,174.473,38.538,249.123-0.002
		c-21.088-5.857-56.787-17.105-124.562-17.105S152.526,181.915,131.439,187.774z"/>
	<path style="fill:#2C5A7E;" d="M256.001,170.667c67.775,0,103.474,11.247,124.562,17.105l6.721-40.584l-8.384-2.546
		c-21.288-5.964-56.872-16.643-122.898-16.643s-101.611,10.679-122.898,16.643l-8.384,2.546l6.721,40.586
		C152.526,181.915,188.225,170.667,256.001,170.667z"/>
	<path style="fill:#6C686F;" d="M256.001,128c66.027,0,101.611,10.679,122.898,16.643l8.384,2.546c0,0,51.4-65.325,0.151-65.325
		c-51.25-0.001-72.916-71.195-131.433-71.195s-80.184,71.194-131.434,71.194c-51.248,0,0.151,65.325,0.151,65.325l8.384-2.546
		C154.39,138.679,189.974,128,256.001,128L256.001,128z M289.492,81.859c0,32.583-21.446,46.142-33.494,46.142
		c-12.045,0-33.492-13.559-33.492-46.142V64.491l33.492-13.892l33.494,13.892V81.859z"/>
	<path style="fill:#E8863B;" d="M255.999,128c12.047,0,33.494-13.559,33.494-46.142V64.491L255.999,50.6l-33.492,13.892v17.367
		C222.507,114.441,243.954,128,255.999,128z"/>
</g>
<g>
	<path style="fill:#000003;" d="M125.294,368.021c-16.788,16.466-30.162,35.694-39.747,57.148c-2.404,5.379,0.01,11.689,5.39,14.092
		c1.413,0.632,2.89,0.93,4.344,0.93c4.08,0,7.977-2.354,9.748-6.319c8.489-19.002,20.334-36.032,35.205-50.617
		c4.207-4.126,4.273-10.88,0.147-15.087C136.256,363.96,129.501,363.894,125.294,368.021z"/>
	<path style="fill:#000003;" d="M87.977,447.713c-5.717-1.437-11.511,2.039-12.942,7.755l-0.158,0.635
		c-1.415,5.72,2.074,11.504,7.795,12.919c0.861,0.212,1.722,0.315,2.57,0.315c4.79,0,9.146-3.25,10.349-8.109l0.141-0.572
		C97.164,454.94,93.692,449.146,87.977,447.713z"/>
	<path style="fill:#000003;" d="M450.703,380.093c-20.218-32.404-48.17-59.207-81.216-78.057
		c4.256-11.181,7.692-26.229,11.282-48.042c0.498-3.028,1.257-7.2,2.133-12.032c2.686-14.799,6.357-35.03,8.234-52.73l6.237-37.664
		c8.091-10.733,31.039-44.12,20.804-65.193c-3.362-6.925-11.425-15.181-30.742-15.181c-20.576,0-35.981-14.35-53.819-30.965
		C313.373,21.372,290.428,0,256.001,0s-57.371,21.372-77.615,40.228c-17.838,16.617-33.243,30.966-53.819,30.966
		c-19.316,0-27.378,8.254-30.741,15.181c-10.235,21.073,12.713,54.46,20.804,65.193l6.231,37.625
		c1.774,18.124,5.439,37.879,8.122,52.332c0.923,4.973,1.719,9.267,2.246,12.471c3.592,21.811,7.029,36.861,11.285,48.041
		c-33.047,18.852-60.998,45.654-81.216,78.06c-22.656,36.311-34.632,78.233-34.632,121.235c0,5.892,4.778,10.669,10.669,10.669
		h179.834c0.015,0,0.029,0.002,0.044,0.002c0.016,0,0.031-0.002,0.047-0.002h257.407c5.891,0,10.669-4.776,10.669-10.669
		C485.336,458.326,473.359,416.403,450.703,380.093z M136.776,154.693l1.491-0.419c20.75-5.837,55.479-15.605,117.734-15.605
		s96.983,9.768,117.733,15.605l1.492,0.419l-3.247,19.609C349.55,168.18,314.224,159.998,256,159.998s-93.55,8.182-115.979,14.304
		L136.776,154.693z M233.176,81.859V71.617l22.825-9.466l22.823,9.466v10.242c0,26.739-16.972,35.473-22.823,35.473
		C250.15,117.331,233.176,108.598,233.176,81.859z M348.026,190.344c-28.427,10.299-59.724,15.665-92.026,15.665
		s-63.599-5.366-92.026-15.665c21.065-4.64,50.386-9.008,92.026-9.008S326.962,185.704,348.026,190.344z M256.001,227.346
		c39.417,0,77.548-7.462,111.459-21.697c-1.758,11.581-3.856,23.151-5.553,32.501c-0.894,4.924-1.664,9.176-2.192,12.377
		c-8.956,54.406-14.606,57.999-38.385,73.124c-3.972,2.525-8.46,5.381-13.459,8.763c-34.426,19.75-69.322,19.752-103.739,0.004
		c-4.997-3.382-9.487-6.237-13.457-8.763c-23.781-15.127-29.431-18.722-38.391-73.126c-0.561-3.417-1.377-7.812-2.322-12.901
		c-1.698-9.151-3.801-20.485-5.528-32.026C178.373,219.868,216.541,227.346,256.001,227.346z M267.096,387.738
		c-0.02,0.016-0.041,0.032-0.061,0.048c-3.098,2.33-6.933,3.674-11.035,3.674c-4.087,0-7.911-1.335-11.004-3.65
		c-0.054-0.045-0.11-0.086-0.164-0.131c-1.204-0.924-2.292-1.999-3.24-3.205L256,372.059l14.408,12.415
		C269.442,385.705,268.331,386.802,267.096,387.738z M192.482,350.299l0.654,0.41c12.356,7.134,24.904,12.143,37.519,15.026
		l-28.206,24.307l-17.398-44.652C187.403,346.91,189.878,348.533,192.482,350.299z M245.929,411.51
		c3.229,0.84,6.606,1.289,10.071,1.289c3.466,0,6.844-0.449,10.075-1.289l15.728,79.151h-51.605L245.929,411.51z M281.345,365.733
		c12.614-2.883,25.163-7.892,37.521-15.027l0.654-0.41c2.604-1.767,5.082-3.391,7.432-4.911l-17.399,44.656L281.345,365.733z
		 M113.019,95.695c0.948-1.951,5.372-3.163,11.548-3.163c28.974,0,48.999-18.652,68.364-36.69
		c19.048-17.744,37.041-34.504,63.071-34.504c26.03,0,44.023,16.76,63.071,34.504c19.364,18.038,39.388,36.69,68.363,36.69
		c6.174,0,10.599,1.212,11.547,3.161c3.011,6.19-5.378,24.226-15.792,39.099c-0.743-0.225-1.281-0.387-1.411-0.424l-2.267-0.637
		c-17.697-4.978-45.072-12.676-89.6-15.403c6.106-9.022,10.25-21.116,10.25-36.472V64.491c0-4.312-2.597-8.202-6.581-9.855
		l-33.492-13.891c-2.616-1.086-5.558-1.086-8.176,0l-33.495,13.891c-3.984,1.653-6.581,5.541-6.581,9.855v17.367
		c0,15.358,4.145,27.451,10.25,36.472c-44.527,2.727-71.901,10.424-89.598,15.403l-2.247,0.631c-0.14,0.039-0.684,0.203-1.432,0.429
		C118.424,119.924,110.085,101.736,113.019,95.695z M152.589,320.848l35.454,90.998c1.258,3.227,4.003,5.643,7.363,6.479
		c0.854,0.212,1.718,0.316,2.578,0.316c2.529,0,5.007-0.899,6.965-2.587l20.455-17.627c0.363,0.44,0.734,0.872,1.114,1.294
		l-18.073,90.94H48.273C51.846,419.775,90.916,356.176,152.589,320.848z M303.558,490.66l-18.072-90.944
		c0.38-0.421,0.748-0.851,1.111-1.29l20.455,17.627c1.958,1.688,4.436,2.587,6.965,2.587c0.859,0,1.725-0.103,2.578-0.316
		c3.36-0.836,6.106-3.252,7.363-6.479l35.454-90.997c61.673,35.329,100.744,98.927,104.317,169.812H303.558V490.66z"/>
	<path style="fill:#000003;" d="M209.543,260.776c5.874,0,10.667-4.791,10.667-10.666c0-5.875-4.792-10.665-10.667-10.665
		c-5.874,0-10.667,4.789-10.667,10.665C198.876,255.985,203.668,260.776,209.543,260.776z"/>
	<path style="fill:#000003;" d="M302.46,260.776c5.874,0,10.667-4.791,10.667-10.666c0-5.875-4.792-10.665-10.667-10.665
		c-5.874,0-10.665,4.789-10.665,10.665C291.794,255.985,296.585,260.776,302.46,260.776z"/>
	<path style="fill:#000003;" d="M223.157,308.442c8.77,8.773,20.433,13.604,32.843,13.604c12.41,0,24.073-4.831,32.843-13.604
		c4.165-4.167,4.163-10.923-0.003-15.088c-4.168-4.167-10.923-4.164-15.088,0.002c-4.739,4.74-11.044,7.352-17.753,7.352
		s-13.013-2.611-17.753-7.352c-4.164-4.167-10.918-4.168-15.088-0.002C218.994,297.519,218.992,304.275,223.157,308.442z"/>
</g>
</svg>